{"title":"Ant.Man.2015.DVDRip.X264.AC3.VAiN","uid":12802359,"size":1376158214,"categoryP":"video","categoryS":"movies","magnet":"?xt=urn:btih:f8c34c77c81026f226dda9fabcd212dcb6425470&amp;dn=Ant.Man.2015.DVDRip.X264.AC3.VAiN&amp;tr=udp%3A%2F%2Ftracker.leechers-paradise.org%3A6969&amp;tr=udp%3A%2F%2Fzer0day.ch%3A1337&amp;tr=udp%3A%2F%2Fopen.demonii.com%3A1337&amp;tr=udp%3A%2F%2Ftracker.coppersurfer.tk%3A6969&amp;tr=udp%3A%2F%2Fexodus.desync.com%3A6969","seeders":0,"leechers":0,"uploader":"TvTeam","files":4,"time":1448067073,"description":"------------------------------------------------------------------------\r\n\r  https://www.torrenting.com\r\n\r\nSign up is OPEN - for time being. Come and have fun.\r\n\r\n------------------------------------------------------------------------[img]http://i.imgur.com/ySOQqM8.jpg[/img]\r\n\r\n[img]http://i.imgur.com/p05bEi0.png[/img]\r\n\r\n\r\nIMDB: http://www.imdb.com/title/tt0478970/\r\n\r\nArmed with a super-suit with the astonishing ability to shrink in scale but increase in strength, cat burglar Scott Lang must embrace his inner hero and help his mentor, Dr. Hank Pym, plan and pull off a heist that will save the world.\r\n\r\n\r\n\r\nAnt.Man.2015.DVDRip.X264.AC3.VAiN.mkv\r\nFormat                      : Matroska\r\nFormat version              : Version 2\r\nFile size                   : 1.27 GiB\r\nDuration                    : 1h 57mn\r\nOverall bit rate            : 1 548 Kbps\r\nEncoded date                : UTC 2015-11-20 21:43:49\r\nWriting application         : mkvmerge v5.7.0 ('The Whirlwind') built on Jul  8 2012 20:08:51\r\nWriting library             : libebml v1.2.3 + libmatroska v1.3.0\r\n\r\nVideo\r\nID                          : 1\r\nFormat                      : AVC\r\nFormat/Info                 : Advanced Video Codec\r\nFormat profile              :   \r\nFormat settings, CABAC      : Yes\r\nFormat settings, ReFrames   : 6 frames\r\nMuxing mode                 : Header stripping\r\nCodec ID                    : V_MPEG4/ISO/AVC\r\nDuration                    : 1h 57mn\r\nBit rate                    : 1 099 Kbps\r\nWidth                       : 720 pixels\r\nHeight                      : 384 pixels\r\nDisplay aspect ratio        : 1.85:1\r\nFrame rate mode             : Constant\r\nFrame rate                  : 23.976 fps\r\nColor space                 : YUV\r\nChroma subsampling          : 4:2:0\r\nBit depth                   : 8 bits\r\nScan type                   : Progressive\r\nBits/(Pixel*Frame)          : 0.166\r\nStream size                 : 896 MiB (69%)\r\nWriting library             : x264 core 142 r2431 ac76440\r\nEncoding settings           : cabac=1 / ref=6 / deblock=1:-1:-1 / analyse=0x3:0x113 / me=umh / subme=10 / psy=1 / psy_rd=1.00:0.00 / mixed_ref=1 / me_range=64 / chroma_me=1 / trellis=2 / 8x8dct=1 / cqm=0 / deadzone=21,11 / fast_pskip=0 / chroma_qp_offset=-2 / threads=6 / lookahead_threads=1 / sliced_threads=0 / nr=0 / decimate=0 / interlaced=0 / bluray_compat=0 / constrained_intra=0 / bframes=6 / b_pyramid=0 / b_adapt=2 / b_bias=0 / direct=3 / weightb=1 / open_gop=0 / weightp=2 / keyint=240 / keyint_min=23 / scenecut=40 / intra_refresh=0 / rc_lookahead=40 / rc=2pass / mbtree=1 / bitrate=1099 / ratetol=1.0 / qcomp=0.60 / qpmin=10 / qpmax=51 / qpstep=4 / cplxblur=20.0 / qblur=0.5 / vbv_maxrate=16800 / vbv_bufsize=16800 / nal_hrd=none / filler=0 / ip_ratio=1.40 / aq=1:1.00\r\nDefault                     : Yes\r\nForced                      : No\r\n\r\nAudio\r\nID                          : 2\r\nFormat                      : AC-3\r\nFormat/Info                 : Audio Coding 3\r\nMode extension              : CM (complete main)\r\nFormat settings, Endianness : Big\r\nMuxing mode                 : Header stripping\r\nCodec ID                    : A_AC3\r\nDuration                    : 1h 57mn\r\nBit rate mode               : Constant\r\nBit rate                    : 448 Kbps\r\nChannel(s)                  : 6 channels\r\nChannel positions           : Front: L C R, Side: L R, LFE\r\nSampling rate               : 48.0 KHz\r\nCompression mode            : Lossy\r\nStream size                 : 375 MiB (29%)\r\nDefault                     : Yes\r\nForced                      : No\r\n\r\nscreens\r\n\r\n[img]http://i.imgur.com/1WEw72v.jpg[/img]\r\n[img]http://i.imgur.com/HdnKMbO.jpg[/img]\r\n[img]http://i.imgur.com/llO4MUT.jpg[/img]\r\n\r\n\r\ngot any funny stories, jokes, nakid pix of ya sisters/gf's or just want to reach out to us giz us some treats send to...   \r\n\r\n***DISCLAiMER*** as you can see there were no special friend that passed us some special vobs. what you see here is work put into a source. sum may like others may just hate...VAiN stands behind it's QUALiTY and don't claim to be professional HDTSCAMBDBRiPDVDRiPSCRHQ ENCODERS. just a cpl of fella's nipping at ya mums knickers.....\r\n\r\n\r\n\r\nHive-CM8 | Rx | REFiLL | JEDI | DREAMER n' LADY | 26k |Unevano | EsX | TOFFEE\r\nGH0ST | ViSiON | Sugarb | DeviAntsRUs | STARLETS | GUSH | spangy | jamie111 | TED |\r\n\r\nAnd all the release grps that don't hide behind new names, or live in the past n glory of old has been that neva were release grps","torrent":{"xt":"urn:btih:f8c34c77c81026f226dda9fabcd212dcb6425470","amp;dn":"Ant.Man.2015.DVDRip.X264.AC3.VAiN","amp;tr":["udp%3A%2F%2Ftracker.leechers-paradise.org%3A6969","udp%3A%2F%2Fzer0day.ch%3A1337","udp%3A%2F%2Fopen.demonii.com%3A1337","udp%3A%2F%2Ftracker.coppersurfer.tk%3A6969","udp%3A%2F%2Fexodus.desync.com%3A6969"],"infoHash":"f8c34c77c81026f226dda9fabcd212dcb6425470","infoHashBuffer":{"type":"Buffer","data":[248,195,76,119,200,16,38,242,38,221,169,250,188,210,18,220,182,66,84,112]},"announce":[],"urlList":[]}}